<svg xmlns="http://www.w3.org/2000/svg" xmlns:xlink="http://www.w3.org/1999/xlink" viewBox="0,0,256,256" width="16px" height="16px"><g fill="#ff0000" fill-rule="nonzero" stroke="none" stroke-width="1" stroke-linecap="butt" stroke-linejoin="miter" stroke-miterlimit="10" stroke-dasharray="" stroke-dashoffset="0" font-family="none" font-weight="none" font-size="none" text-anchor="none" style="mix-blend-mode: normal"><g transform="scale(10.66667,10.66667)"><path d="M9,3c-0.552,0 -1,0.448 -1,1c0,0.552 0.448,1 1,1h9c0.552,0 1,0.448 1,1v9h-2c-0.404,0 -0.76883,0.24319 -0.92383,0.61719c-0.051,0.124 -0.07617,0.25381 -0.07617,0.38281c0,0.26 0.10197,0.51603 0.29297,0.70703l3,3c0.391,0.391 1.02406,0.391 1.41406,0l3,-3c0.286,-0.286 0.3708,-0.71484 0.2168,-1.08984c-0.155,-0.374 -0.51983,-0.61719 -0.92383,-0.61719h-2v-9c0,-1.657 -1.343,-3 -3,-3zM4,4c-0.25588,0 -0.51203,0.09747 -0.70703,0.29297l-3,3c-0.286,0.286 -0.3708,0.71484 -0.2168,1.08984c0.155,0.374 0.51983,0.61719 0.92383,0.61719h2v9c0,1.657 1.343,3 3,3h9c0.552,0 1,-0.448 1,-1c0,-0.552 -0.448,-1 -1,-1h-9c-0.552,0 -1,-0.448 -1,-1v-9h2c0.404,0 0.76883,-0.24319 0.92383,-0.61719c0.051,-0.124 0.07617,-0.25381 0.07617,-0.38281c0,-0.26 -0.10197,-0.51603 -0.29297,-0.70703l-3,-3c-0.1955,-0.1955 -0.45116,-0.29297 -0.70703,-0.29297z"></path></g></g></svg>